<svg width="284.929" height="284.929" xmlns="http://www.w3.org/2000/svg" xml:space="preserve" version="1.1">

 <g>
  <title>Layer 1</title>
  <g stroke="null" id="svg_1">
   <path transform="rotate(-90 140.965 142.964)" stroke="null" id="svg_2" d="m279.11198,71.8511l-14.12371,-15.38966c-1.88197,-2.05512 -4.04991,-3.07944 -6.50082,-3.07944c-2.44498,0 -4.61192,1.02432 -6.4939,3.07944l-111.02756,120.98126l-111.02261,-120.97802c-1.88296,-2.05512 -4.04991,-3.07944 -6.49786,-3.07944c-2.44894,0 -4.61588,1.02432 -6.49786,3.07944l-14.12173,15.39073c-1.88593,2.0508 -2.82593,4.41214 -2.82593,7.08077c0,2.66648 0.94297,5.02781 2.82593,7.07862l131.6422,143.45492c1.88197,2.05188 4.04991,3.07728 6.49786,3.07728s4.61192,-1.0254 6.49291,-3.07728l131.65308,-143.45492c1.88197,-2.05188 2.81702,-4.41322 2.81702,-7.07862c0,-2.66863 -0.93505,-5.02997 -2.81702,-7.08509z"/>
  </g>
  <g id="svg_3"/>
  <g id="svg_4"/>
  <g id="svg_5"/>
  <g id="svg_6"/>
  <g id="svg_7"/>
  <g id="svg_8"/>
  <g id="svg_9"/>
  <g id="svg_10"/>
  <g id="svg_11"/>
  <g id="svg_12"/>
  <g id="svg_13"/>
  <g id="svg_14"/>
  <g id="svg_15"/>
  <g id="svg_16"/>
  <g id="svg_17"/>
 </g>
</svg>